<mxfile host="65bd71144e">
    <diagram id="UbYXVBB2EpEj3fS1ed3g" name="Page-1">
        <mxGraphModel dx="793" dy="599" grid="1" gridSize="10" guides="1" tooltips="1" connect="1" arrows="1" fold="1" page="1" pageScale="1" pageWidth="850" pageHeight="1100" math="0" shadow="0">
            <root>
                <mxCell id="0"/>
                <mxCell id="1" parent="0"/>
                <mxCell id="10" value="" style="edgeStyle=none;html=1;" edge="1" parent="1" source="2" target="9">
                    <mxGeometry relative="1" as="geometry"/>
                </mxCell>
                <mxCell id="2" value="A" style="whiteSpace=wrap;html=1;" vertex="1" parent="1">
                    <mxGeometry x="160" y="320" width="160" height="80" as="geometry"/>
                </mxCell>
                <mxCell id="3" value="B" style="whiteSpace=wrap;html=1;" vertex="1" parent="1">
                    <mxGeometry x="400" y="320" width="160" height="80" as="geometry"/>
                </mxCell>
                <mxCell id="4" value="C" style="whiteSpace=wrap;html=1;" vertex="1" parent="1">
                    <mxGeometry x="640" y="320" width="160" height="80" as="geometry"/>
                </mxCell>
                <mxCell id="6" style="edgeStyle=none;html=1;entryX=0.5;entryY=0;entryDx=0;entryDy=0;" edge="1" parent="1" source="5" target="3">
                    <mxGeometry relative="1" as="geometry"/>
                </mxCell>
                <mxCell id="7" style="edgeStyle=none;html=1;" edge="1" parent="1" source="5" target="2">
                    <mxGeometry relative="1" as="geometry"/>
                </mxCell>
                <mxCell id="8" style="edgeStyle=none;html=1;" edge="1" parent="1" source="5" target="4">
                    <mxGeometry relative="1" as="geometry"/>
                </mxCell>
                <mxCell id="5" value="VIRTUAL-DOM" style="whiteSpace=wrap;html=1;" vertex="1" parent="1">
                    <mxGeometry x="400" y="120" width="160" height="80" as="geometry"/>
                </mxCell>
                <mxCell id="9" value="AA" style="whiteSpace=wrap;html=1;" vertex="1" parent="1">
                    <mxGeometry x="160" y="440" width="160" height="80" as="geometry"/>
                </mxCell>
            </root>
        </mxGraphModel>
    </diagram>
</mxfile>